# xmcd
#
# Track frame offsets:
#	150
#	22703
#	39253
#	58021
#	77478
#	96291
#	121602
#	136947
#	150164
#	166199
#	192829
#	212678
#
# Disc length: 3076 seconds
#
# Revision: 1
# Processed by: cddbd v1.5.2PL0 Copyright (c) Steve Scherf et al.
# Submitted via: audiograbber 1.83.01
#
DISCID=800c020c
DTITLE=Bruce Springsteen - Devils and Dust
DYEAR=2005
DGENRE=Rock
TTITLE0=Bruce Springsteen - Devils and Dust
TTITLE1=Bruce Springsteen - All The Way Home
TTITLE2=Bruce Springsteen - Reno
TTITLE3=Bruce Springsteen - Long Time Comin'
TTITLE4=Bruce Springsteen - Black Cowboys
TTITLE5=Bruce Springsteen - Maria's Bed
TTITLE6=Bruce Springsteen - Silver Palomino
TTITLE7=Bruce Springsteen - Jesus Was An Only Son
TTITLE8=Bruce Springsteen - Leah
TTITLE9=Bruce Springsteen - The Hitter
TTITLE10=Bruce Springsteen - All I'm Thinkin' About
TTITLE11=Bruce Springsteen - Matamoros Banks
EXTD=
EXTT0=
EXTT1=
EXTT2=
EXTT3=
EXTT4=
EXTT5=
EXTT6=
EXTT7=
EXTT8=
EXTT9=
EXTT10=
EXTT11=
PLAYORDER=
